<svg id="Layer_3" data-name="Layer 3" xmlns="http://www.w3.org/2000/svg" viewBox="0 0 679.17 749.5"><defs><style>.cls-1{fill:#f87311;}.cls-2{font-size:144.72px;}.cls-2,.cls-5{fill:#da580c;font-family:Montserrat-Regular, Montserrat;}.cls-3{letter-spacing:-0.02em;}.cls-4{letter-spacing:0em;}.cls-5{font-size:69.26px;}.cls-6{letter-spacing:0em;}</style></defs><title>wst</title><path class="cls-1" d="M707.77,125.25h75.91V627.86a591.6,591.6,0,0,1-78.84-3.65,367.79,367.79,0,0,1-112.56-30.7,306.29,306.29,0,0,1-48.5-27.27c-4.14-2.88-44.93-33.87-42.23-37.66-12,16.81-31.85,30.63-49,41.43-35,22.07-75.76,38-116.11,47-11.82,2.62-120.15,16.25-120.15,11V125.25h79V544.09s88.76,14,166.62-93.08V125.25h81.87V451s52.59,83.77,160.87,91.53Z" transform="translate(-160.41 -125.25)"/><text class="cls-2" transform="translate(0 659.16)"><tspan class="cls-3">W</tspan><tspan x="158.62" y="0">E SO</tspan><tspan class="cls-4" x="503.77" y="0">F</tspan><tspan x="596.1" y="0">T</tspan></text><text class="cls-5" transform="translate(243.62 731.36)">T<tspan class="cls-6" x="39.76" y="0">E</tspan><tspan x="85.81" y="0">CH</tspan></text></svg>