<svg id="Layer_5" enable-background="new 0 0 64 64" height="512" viewBox="0 0 64 64" width="512" xmlns="http://www.w3.org/2000/svg"><g><path d="m54 59h-10v2h-3v2h16v-2h-3z"/><path d="m19.714 21.659c.553.919 1.023 2.046 1.391 3.341h3.374c-1.247-1.507-2.891-2.666-4.765-3.341z"/><path d="m6.214 37h4.217c-.225-1.237-.364-2.581-.409-4h-4.971c.129 1.43.537 2.779 1.163 4z"/><path d="m5.051 31h4.971c.046-1.419.184-2.763.409-4h-4.217c-.626 1.221-1.034 2.57-1.163 4z"/><path d="m7.521 25h3.374c.368-1.295.838-2.422 1.391-3.341-1.874.675-3.518 1.834-4.765 3.341z"/><path d="m16 43c1.075 0 2.22-1.527 3.009-4h-6.018c.789 2.473 1.934 4 3.009 4z"/><path d="m19.979 33h-7.958c.052 1.447.217 2.791.46 4h7.038c.244-1.209.408-2.553.46-4z"/><path d="m16 21c-1.075 0-2.22 1.527-3.009 4h6.018c-.789-2.473-1.934-4-3.009-4z"/><path d="m12.021 31h7.958c-.052-1.447-.217-2.791-.46-4h-7.038c-.244 1.209-.408 2.553-.46 4z"/><path d="m26.949 33h-4.971c-.046 1.419-.184 2.763-.409 4h4.217c.626-1.221 1.034-2.57 1.163-4z"/><path d="m7.521 39c1.246 1.507 2.891 2.666 4.764 3.341-.553-.919-1.023-2.046-1.391-3.341z"/><path d="m25.786 27h-4.217c.225 1.237.364 2.581.409 4h4.971c-.129-1.43-.537-2.779-1.163-4z"/><path d="m24.479 39h-3.374c-.368 1.295-.838 2.422-1.391 3.341 1.874-.675 3.518-1.834 4.765-3.341z"/><path d="m37 56c0 .552.449 1 1 1h22c.551 0 1-.448 1-1v-1h-24z"/><path d="m60 41h-22c-.551 0-1 .448-1 1v11h24v-11c0-.552-.449-1-1-1z"/><path d="m51 21c0 1.654 1.346 3 3 3s3-1.346 3-3v-3h-6z"/><path d="m50.42 16h2.58v-3.184c-1.161-.414-2-1.514-2-2.816 0-1.654 1.346-3 3-3s3 1.346 3 3c0 1.302-.839 2.402-2 2.816v3.184h2.581c2.109-1.262 3.419-3.549 3.419-6 0-1.988-.85-3.89-2.333-5.217-1.3-1.164-2.931-1.783-4.659-1.783-.268 0-.539.015-.811.045-3.067.34-5.636 2.79-6.108 5.826-.448 2.869.861 5.653 3.331 7.129z"/><circle cx="54" cy="10" r="1"/><path d="m16 15c-4.541 0-8.81 1.769-12.021 4.979l1.414 1.414c2.834-2.832 6.6-4.393 10.607-4.393s7.773 1.561 10.606 4.394l1.414-1.414c-3.21-3.211-7.479-4.98-12.02-4.98z"/><path d="m16 49c4.541 0 8.81-1.769 12.021-4.979l-1.414-1.414c-2.834 2.832-6.6 4.393-10.607 4.393s-7.773-1.561-10.606-4.394l-1.414 1.414c3.21 3.211 7.479 4.98 12.02 4.98z"/><path d="m29.435 18.564 1.414-1.414c-8.188-8.188-21.511-8.188-29.698 0l1.414 1.414c7.408-7.406 19.462-7.406 26.87 0z"/><path d="m2.565 45.436-1.414 1.414c4.094 4.093 9.472 6.14 14.849 6.14s10.755-2.047 14.849-6.141l-1.414-1.414c-7.408 7.407-19.462 7.407-26.87.001z"/><path d="m28.638 35h18.362c.551 0 1 .448 1 1v3h2v-3c0-1.654-1.346-3-3-3h-18.051c-.052.683-.157 1.35-.311 2z"/><path d="m28.949 31h9.051c1.654 0 3-1.346 3-3v-16c0-.552.449-1 1-1h3.059c-.037-.329-.059-.662-.059-1s.022-.671.059-1h-3.059c-1.654 0-3 1.346-3 3v16c0 .552-.449 1-1 1h-9.362c.154.65.259 1.317.311 2z"/></g></svg>